# Created by Metasequoia

v 0.000000 -0.035322 0.584508
v 0.180623 -0.035322 0.555900
v 0.343565 -0.035322 0.472877
v 0.472877 -0.035322 0.343565
v 0.555900 -0.035322 0.180623
v 0.584508 -0.035322 0.000000
v 0.555900 -0.035322 -0.180623
v 0.472877 -0.035322 -0.343565
v 0.343565 -0.035322 -0.472877
v 0.180622 -0.035322 -0.555900
v 0.000000 -0.035322 -0.584508
v -0.180623 -0.035322 -0.555900
v -0.343565 -0.035322 -0.472876
v -0.472877 -0.035322 -0.343565
v -0.555900 -0.035322 -0.180622
v -0.584508 -0.035322 0.000000
v -0.555900 -0.035322 0.180624
v -0.472876 -0.035322 0.343566
v -0.343565 -0.035322 0.472877
v -0.180622 -0.035322 0.555900
v 0.000000 1.133689 0.000000
v 0.000000 -0.035322 0.000000
# 22 vertices

vn 0.00000 0.44721 0.89443
vn 0.13373 0.51885 0.84434
vn 0.27639 0.44721 0.85065
vn 0.52573 0.44721 0.72361
vn 0.72361 0.44721 0.52573
vn 0.85065 0.44721 0.27639
vn 0.84181 0.46534 -0.27352
vn 0.89443 0.44721 0.00000
vn 0.85065 0.44721 -0.27639
vn 0.72361 0.44721 -0.52573
vn 0.52573 0.44721 -0.72361
vn -0.00000 0.46534 -0.88513
vn 0.27639 0.44721 -0.85065
vn -0.00000 0.44721 -0.89443
vn -0.27639 0.44721 -0.85065
vn -0.52573 0.44721 -0.72361
vn -0.84181 0.46534 -0.27352
vn -0.72361 0.44721 -0.52573
vn -0.85065 0.44721 -0.27639
vn -0.89443 0.44721 0.00000
vn -0.85065 0.44721 0.27639
vn -0.79890 0.44279 0.40706
vn -0.72361 0.44721 0.52573
vn -0.52573 0.44721 0.72361
vn -0.27639 0.44721 0.85065
vn 0.00000 -1.00000 0.00000
# 26 normal vertices

f 2//3 21//2 1//1
f 3//4 21//2 2//3
f 4//5 21//2 3//4
f 5//6 21//2 4//5
f 6//8 21//7 5//6
f 7//9 21//7 6//8
f 8//10 21//7 7//9
f 9//11 21//7 8//10
f 10//13 21//12 9//11
f 11//14 21//12 10//13
f 12//15 21//12 11//14
f 13//16 21//12 12//15
f 14//18 21//17 13//16
f 15//19 21//17 14//18
f 16//20 21//17 15//19
f 17//21 21//17 16//20
f 18//23 21//22 17//21
f 19//24 21//2 18//23
f 20//25 21//2 19//24
f 1//1 21//2 20//25
f 2//26 1//26 22//26
f 3//26 2//26 22//26
f 4//26 3//26 22//26
f 5//26 4//26 22//26
f 6//26 5//26 22//26
f 7//26 6//26 22//26
f 8//26 7//26 22//26
f 9//26 8//26 22//26
f 10//26 9//26 22//26
f 11//26 10//26 22//26
f 12//26 11//26 22//26
f 13//26 12//26 22//26
f 14//26 13//26 22//26
f 15//26 14//26 22//26
f 16//26 15//26 22//26
f 17//26 16//26 22//26
f 18//26 17//26 22//26
f 19//26 18//26 22//26
f 20//26 19//26 22//26
f 1//26 20//26 22//26
# 40 elements

